<?xml version="1.0" encoding="UTF-8"?>
<svg width="304px" height="150px" viewBox="0 0 304 150" version="1.1" xmlns="http://www.w3.org/2000/svg" xmlns:xlink="http://www.w3.org/1999/xlink">
    <!-- Generator: Sketch 61.2 (89653) - https://sketch.com -->
    <title>Thankyou@2x</title>
    <desc>Created with Sketch.</desc>
    <g id="Page-2" stroke="none" stroke-width="1" fill="none" fill-rule="evenodd">
        <path d="M30.68,149.43 C31.104,149.712667 31.5986667,149.818667 32.164,149.748 C32.7293333,149.677333 33.1886667,149.394667 33.542,148.9 C34.2486667,147.84 35.2026667,146.391333 36.404,144.554 C37.252,143.07 38.1353333,141.586 39.054,140.102 C40.4673333,137.699333 42.1633333,134.766667 44.142,131.304 C47.4633333,125.438667 50.7846667,119.502667 54.106,113.496 C60.678,101.341333 66.9673333,89.328 72.974,77.456 C80.1113333,63.464 86.118,51.274 90.994,40.886 C94.386,33.678 97.1773333,27.4593333 99.368,22.23 C100.852,18.6966667 102.124,15.5166667 103.184,12.69 C103.890667,10.782 104.456,9.15666667 104.88,7.814 C105.021333,7.53133333 105.127333,7.21333333 105.198,6.86 L105.198,6.86 L105.834,6.86 C123.359333,6.15333333 140.778667,5.94133333 158.092,6.224 C167.844,6.436 176.536,6.754 184.168,7.178 C187.842667,7.39 191.376,7.63733333 194.768,7.92 C194.697333,8.132 194.697333,8.344 194.768,8.556 C194.838667,8.90933333 194.98,9.22733333 195.192,9.51 C195.404,9.79266667 195.686667,10.0046667 196.04,10.146 C196.393333,10.2873333 196.746667,10.3226667 197.1,10.252 L197.1,10.252 L197.312,10.146 C197.382667,10.146 197.488667,10.1283333 197.63,10.093 C197.771333,10.0576667 197.877333,10.04 197.948,10.04 C198.018667,10.04 198.142333,10.0223333 198.319,9.987 C198.495667,9.95166667 198.619333,9.934 198.69,9.934 C199.184667,9.86333333 199.714667,9.828 200.28,9.828 C201.34,9.75733333 202.435333,9.722 203.566,9.722 C204.626,9.65133333 205.721333,9.65133333 206.852,9.722 L206.852,9.722 L210.244,9.722 C210.738667,9.722 211.180333,9.563 211.569,9.245 C211.957667,8.927 212.222667,8.52066667 212.364,8.026 C212.434667,7.67266667 212.399333,7.31933333 212.258,6.966 C212.116667,6.61266667 211.904667,6.31233333 211.622,6.065 C211.339333,5.81766667 211.021333,5.65866667 210.668,5.588 C208.830667,5.23466667 206.64,4.88133333 204.096,4.528 C202.046667,4.316 199.856,4.104 197.524,3.892 C193.496,3.468 189.114667,3.11466667 184.38,2.832 C176.182667,2.33733333 167.42,2.01933333 158.092,1.878 C140.990667,1.59533333 123.748,1.772 106.364,2.408 C106.434667,1.84266667 106.293333,1.348 105.94,0.924 C105.586667,0.5 105.127333,0.270333333 104.562,0.235 C103.996667,0.199666667 103.502,0.358666667 103.078,0.712 C102.512667,1.27733333 101.982667,1.91333333 101.488,2.62 C83.9626667,3.32666667 67.9213333,4.528 53.364,6.224 C43.5413333,7.35466667 34.8493333,8.662 27.288,10.146 C22.412,11.0646667 18.1366667,12.054 14.462,13.114 C9.44466667,14.5273333 5.24,16.082 1.848,17.778 C0.788,18.2726667 0.434666667,19.05 0.788,20.11 C0.858666667,20.322 0.964666667,20.534 1.106,20.746 C1.24733333,20.958 1.44166667,21.1346667 1.689,21.276 C1.93633333,21.4173333 2.18366667,21.5056667 2.431,21.541 C2.67833333,21.5763333 2.94333333,21.5586667 3.226,21.488 C7.81933333,20.1453333 12.0593333,19.0146667 15.946,18.096 C20.5393333,16.9653333 24.8146667,16.0466667 28.772,15.34 C33.5066667,14.492 37.8173333,13.8913333 41.704,13.538 C46.58,13.114 50.8906667,13.0786667 54.636,13.432 C59.512,13.9266667 63.54,15.0573333 66.72,16.824 C68.5573333,17.884 70.1473333,19.156 71.49,20.64 C72.762,22.1946667 73.822,23.9613333 74.67,25.94 C75.942,29.332 76.5073333,33.5013333 76.366,38.448 C76.2953333,42.3346667 75.73,46.6453333 74.67,51.38 C73.0446667,58.8706667 70.3946667,67.2446667 66.72,76.502 C65.1653333,80.2473333 63.434,84.2753333 61.526,88.586 C59.406,93.25 57.498,97.2426667 55.802,100.564 C52.834,106.570667 48.6293333,114.308667 43.188,123.778 L43.188,123.778 L30.044,146.674 C29.408,147.804667 29.62,148.723333 30.68,149.43 Z M68.31,77.456 C68.31,77.3853333 68.3276667,77.3146667 68.363,77.244 C68.3983333,77.1733333 68.416,77.138 68.416,77.138 C72.3026667,67.3153333 75.0586667,58.8706667 76.684,51.804 C77.8853333,46.7866667 78.5566667,42.37 78.698,38.554 C78.8393333,36.1513333 78.804,33.89 78.592,31.77 C78.3093333,29.3673333 77.7793333,27.106 77.002,24.986 C76.154,22.7246667 74.988,20.7106667 73.504,18.944 C72.02,17.1066667 70.218,15.5873333 68.098,14.386 C66.2606667,13.2553333 64.1406667,12.3366667 61.738,11.63 C59.618,11.0646667 57.3566667,10.6406667 54.954,10.358 L54.954,10.358 L54.742,10.358 C68.0273333,8.874 82.7613333,7.77866667 98.944,7.072 C98.8026667,7.284 98.626,7.602 98.414,8.026 C98.2726667,8.37933333 97.778,9.43933333 96.93,11.206 C96.082,12.9726667 95.446,14.3153333 95.022,15.234 C93.8206667,17.7073333 92.584,20.0746667 91.312,22.336 C89.8986667,24.8093333 88.4853333,27.0353333 87.072,29.014 C87.072,29.0846667 87.0366667,29.12 86.966,29.12 C86.4713333,30.0386667 86.6833333,30.763 87.602,31.293 C88.5206667,31.823 89.2626667,31.6286667 89.828,30.71 L89.828,30.71 L93.644,23.608 C94.3506667,22.2653333 95.4106667,20.322 96.824,17.778 C96.4,18.7673333 96.0113333,19.7213333 95.658,20.64 C93.326,26.0813333 90.5346667,32.2293333 87.284,39.084 C81.984,50.32 75.9773333,62.4746667 69.264,75.548 C69.1933333,75.6893333 69.105,75.8836667 68.999,76.131 C68.893,76.3783333 68.7693333,76.608 68.628,76.82 C68.4866667,77.032 68.3806667,77.244 68.31,77.456 Z M81.7981728,99.4137037 L81.984,99.398 C82.5493333,99.3273333 83.0086667,99.08 83.362,98.656 C83.4326667,98.1613333 83.6093333,97.6313333 83.892,97.066 C84.104,96.642 84.3866667,96.218 84.74,95.794 C85.3053333,95.158 85.9766667,94.3806667 86.754,93.462 C87.5313333,92.6846667 88.2733333,92.0133333 88.98,91.448 C89.2626667,91.0946667 89.616,90.7766667 90.04,90.494 C90.3933333,90.2113333 90.7466667,89.964 91.1,89.752 C91.2413333,90.0346667 91.418,90.4233333 91.63,90.918 L91.63,90.918 L92.16,92.402 C92.4426667,93.038 92.69,93.568 92.902,93.992 C93.2553333,94.628 93.6086667,95.158 93.962,95.582 C94.598,96.2886667 95.3046667,96.748 96.082,96.96 C96.506,97.1013333 96.93,97.172 97.354,97.172 C97.7073333,97.1013333 98.096,97.0306667 98.52,96.96 C99.368,96.6773333 100.428,96.1473333 101.7,95.37 C102.548,94.8046667 103.431333,94.204 104.35,93.568 C105.975333,92.3666667 107.600667,91.024 109.226,89.54 C110.922,88.056 112.441333,86.6426667 113.784,85.3 C114.632,84.5226667 115.374,83.7806667 116.01,83.074 C116.434,82.5793333 116.787333,82.1906667 117.07,81.908 C117.211333,81.6253333 117.352667,81.4133333 117.494,81.272 C117.776667,80.9186667 117.953333,80.636 118.024,80.424 C118.306667,80 118.236,79.6113333 117.812,79.258 C117.317333,78.9046667 116.893333,78.9753333 116.54,79.47 L116.54,79.47 L116.54,79.576 C116.398667,79.6466667 116.257333,79.788 116.116,80 L116.116,80 L114.526,81.59 C113.819333,82.1553333 113.042,82.8266667 112.194,83.604 C110.498,85.0173333 108.908,86.2893333 107.424,87.42 C105.516,88.904 103.890667,90.1053333 102.548,91.024 C101.488,91.7306667 100.64,92.2606667 100.004,92.614 C99.0146667,93.1793333 98.202,93.5326667 97.566,93.674 C97.4246667,93.7446667 97.3186667,93.78 97.248,93.78 C97.1773333,93.78 97.1066667,93.7446667 97.036,93.674 C96.8946667,93.6033333 96.7533333,93.4973333 96.612,93.356 C96.2586667,92.932 95.87,92.19 95.446,91.13 L95.446,91.13 L94.916,89.646 C94.704,88.9393333 94.492,88.3916667 94.28,88.003 C94.068,87.6143333 93.8206667,87.2786667 93.538,86.996 C93.326,86.784 93.114,86.6073333 92.902,86.466 C92.6193333,86.3246667 92.3013333,86.2186667 91.948,86.148 C91.3826667,86.0066667 90.8173333,86.042 90.252,86.254 C89.8986667,86.3953333 89.5453333,86.572 89.192,86.784 C88.8386667,87.0666667 88.3793333,87.4553333 87.814,87.95 C87.5313333,88.3033333 87.1603333,88.7273333 86.701,89.222 C86.2416667,89.7166667 85.6233333,90.4586667 84.846,91.448 C84.846,91.3773333 84.8636667,91.289 84.899,91.183 C84.9343333,91.077 84.9696667,90.971 85.005,90.865 C85.0403333,90.759 85.0933333,90.6353333 85.164,90.494 C85.8,88.4446667 86.6126667,86.0773333 87.602,83.392 C88.026,82.1906667 88.5206667,80.8833333 89.086,79.47 C89.298,79.3286667 89.4393333,79.258 89.51,79.258 C90.146,78.6926667 90.8526667,78.0566667 91.63,77.35 C92.902,76.2193333 94.2446667,74.8766667 95.658,73.322 C98.202,70.6366667 100.64,67.7393333 102.972,64.63 C105.516,61.026 107.424,57.7046667 108.696,54.666 C109.544,52.546 110.074,50.6026667 110.286,48.836 C110.427333,47.6346667 110.427333,46.5393333 110.286,45.55 C110.074,44.3486667 109.65,43.218 109.014,42.158 C108.872667,41.946 108.696,41.7693333 108.484,41.628 L108.484,41.628 L108.272,41.522 C107.848,41.31 107.388667,41.204 106.894,41.204 C106.540667,41.2746667 106.152,41.3453333 105.728,41.416 C105.304,41.628 104.88,41.9106667 104.456,42.264 C103.890667,42.6173333 103.325333,43.1473333 102.76,43.854 C101.982667,44.702 101.17,45.7973333 100.322,47.14 C99.1206667,48.9773333 97.778,51.2033333 96.294,53.818 C94.174,57.9166667 91.948,62.5453333 89.616,67.704 C87.4253333,72.6506667 85.482,77.4206667 83.786,82.014 C82.726,84.77 81.878,87.208 81.242,89.328 C80.818,90.7413333 80.4646667,92.0133333 80.182,93.144 C79.97,93.9213333 79.8286667,94.5926667 79.758,95.158 C79.6873333,95.582 79.652,95.9706667 79.652,96.324 L79.652,96.324 L79.652,97.066 C79.7226667,97.49 79.7933333,97.8433333 79.864,98.126 C80.0053333,98.4793333 80.2173333,98.762 80.5,98.974 C80.924,99.3273333 81.4186667,99.4686667 81.984,99.398 L81.7981728,99.4137037 Z M90.57,75.866 C91.4886667,73.6753333 92.4073333,71.52 93.326,69.4 C95.5873333,64.2413333 97.778,59.7186667 99.898,55.832 C101.311333,53.2173333 102.583333,51.062 103.714,49.366 C104.491333,48.1646667 105.198,47.2106667 105.834,46.504 C106.046,46.2213333 106.293333,45.974 106.576,45.762 C106.646667,45.974 106.717333,46.1506667 106.788,46.292 C107,46.9986667 107.106,47.776 107.106,48.624 C107.106,50.108 106.788,51.804 106.152,53.712 C105.092,56.5386667 103.396,59.7186667 101.064,63.252 C99.156,66.1493333 96.8946667,69.082 94.28,72.05 C93.008,73.4633333 91.7713333,74.7353333 90.57,75.866 Z M114.42,92.19 C115.056,92.1193333 115.692,91.9073333 116.328,91.554 C116.610667,91.4126667 117.034667,91.13 117.6,90.706 C118.094667,90.282 118.695333,89.6813333 119.402,88.904 C120.320667,87.9853333 121.345333,86.784 122.476,85.3 C123.041333,84.5933333 123.712667,83.71 124.49,82.65 L124.49,82.65 L124.49,83.922 C124.419333,85.406 124.49,86.7133333 124.702,87.844 C124.984667,88.7626667 125.373333,89.4693333 125.868,89.964 C126.221333,90.3173333 126.645333,90.5646667 127.14,90.706 C127.564,90.7766667 127.988,90.7766667 128.412,90.706 C128.765333,90.6353333 129.154,90.5293333 129.578,90.388 C129.860667,90.2466667 130.178667,90.1053333 130.532,89.964 C131.026667,89.6106667 131.556667,89.222 132.122,88.798 C132.97,88.162 133.853333,87.314 134.772,86.254 C136.044,84.77 137.528,82.862 139.224,80.53 C139.577333,80.0353333 139.506667,79.6113333 139.012,79.258 C138.517333,78.9046667 138.093333,78.9753333 137.74,79.47 C136.044,81.7313333 134.56,83.5333333 133.288,84.876 C132.369333,85.7946667 131.521333,86.5366667 130.744,87.102 C130.32,87.4553333 129.896,87.7733333 129.472,88.056 C129.189333,88.1266667 128.942,88.215 128.73,88.321 C128.518,88.427 128.323667,88.48 128.147,88.48 L128.147,88.48 L127.67,88.48 C127.599333,88.4093333 127.528667,88.3386667 127.458,88.268 C127.175333,88.1266667 126.998667,87.8086667 126.928,87.314 C126.857333,86.9606667 126.822,86.466 126.822,85.83 C126.822,85.3353333 126.857333,84.77 126.928,84.134 C127.069333,83.3566667 127.281333,82.3673333 127.564,81.166 L127.564,81.166 L127.564,81.272 C128.341333,81.696 128.977333,81.5546667 129.472,80.848 C129.684,80.4946667 129.896,80.0706667 130.108,79.576 C130.32,79.2226667 130.532,78.7986667 130.744,78.304 C131.097333,77.456 131.415333,76.6433333 131.698,75.866 C132.051333,74.9473333 132.334,74.0993333 132.546,73.322 C132.687333,72.7566667 132.793333,72.262 132.864,71.838 C132.934667,71.202 132.934667,70.672 132.864,70.248 C132.864,69.824 132.793333,69.4353333 132.652,69.082 C132.369333,68.5166667 131.980667,68.0926667 131.486,67.81 C131.344667,67.7393333 131.203333,67.704 131.062,67.704 L131.062,67.704 L130.85,67.598 L130.744,67.598 C130.532,67.5273333 130.355333,67.492 130.214,67.492 L130.214,67.492 L129.26,67.492 C128.341333,67.6333333 127.316667,67.9866667 126.186,68.552 C124.772667,69.3293333 123.288667,70.4246667 121.734,71.838 C119.119333,74.2406667 116.787333,76.9613333 114.738,80 C113.607333,81.7666667 112.759333,83.392 112.194,84.876 C111.77,86.0066667 111.522667,87.0313333 111.452,87.95 C111.452,88.7273333 111.558,89.434 111.77,90.07 C111.982,90.494 112.247,90.8826667 112.565,91.236 C112.883,91.5893333 113.254,91.872 113.678,92.084 L113.678,92.084 L114.314,92.19 L114.314,92.19 L114.42,92.19 Z M115.586,88.268 L115.586,88.162 C115.586,87.6673333 115.727333,87.0313333 116.01,86.254 C116.434,85.0526667 117.140667,83.6746667 118.13,82.12 C119.967333,79.2226667 122.016667,76.6786667 124.278,74.488 C125.620667,73.1453333 126.822,72.1913333 127.882,71.626 C128.588667,71.202 129.189333,70.9546667 129.684,70.884 L129.684,70.884 L129.684,71.52 C129.613333,71.8026667 129.542667,72.156 129.472,72.58 C129.330667,73.2866667 129.154,74.064 128.942,74.912 C128.73,75.4066667 128.518,75.9366667 128.306,76.502 C128.235333,76.2193333 128.094,76.0073333 127.882,75.866 C127.175333,75.3713333 126.574667,75.442 126.08,76.078 C126.009333,76.2193333 125.868,76.4313333 125.656,76.714 L125.656,76.714 L125.338,77.244 L124.702,78.198 C124.136667,78.9753333 123.677333,79.6113333 123.324,80.106 C122.405333,81.4486667 121.486667,82.65 120.568,83.71 C119.508,85.0526667 118.518667,86.148 117.6,86.996 C116.964,87.5613333 116.398667,87.95 115.904,88.162 C115.762667,88.2326667 115.656667,88.268 115.586,88.268 L115.586,88.268 Z M136.574,97.225 C137.139333,97.2603333 137.634,97.1013333 138.058,96.748 L138.058,96.748 L138.058,96.642 C138.340667,96.2886667 138.906,95.476 139.754,94.204 C140.319333,93.2853333 140.814,92.5433333 141.238,91.978 C142.368667,90.4233333 143.499333,89.01 144.63,87.738 L144.63,87.738 L146.432,85.936 C147.138667,85.3 147.739333,84.8053333 148.234,84.452 C148.516667,84.3106667 148.799333,84.2046667 149.082,84.134 L149.082,84.134 L149.188,84.134 L149.294,84.24 C149.435333,84.3813333 149.576667,84.6286667 149.718,84.982 C149.859333,85.406 150.071333,86.1833333 150.354,87.314 C150.707333,88.6566667 150.99,89.646 151.202,90.282 C151.414,90.6353333 151.626,90.918 151.838,91.13 C152.191333,91.554 152.615333,91.8366667 153.11,91.978 C153.322,92.1193333 153.569333,92.19 153.852,92.19 C154.134667,92.19 154.417333,92.1546667 154.7,92.084 C154.982667,92.0133333 155.300667,91.872 155.654,91.66 C156.078,91.448 156.537333,91.13 157.032,90.706 C157.385333,90.3526667 157.738667,89.9993333 158.092,89.646 C159.010667,88.5153333 160.106,86.996 161.378,85.088 C162.226,83.816 163.144667,82.2966667 164.134,80.53 C164.416667,80.106 164.381333,79.7173333 164.028,79.364 C163.533333,78.94 163.109333,78.9753333 162.756,79.47 C162.332,79.9646667 161.731333,80.6713333 160.954,81.59 C160.388667,82.3673333 159.858667,83.0386667 159.364,83.604 C158.021333,85.3 156.855333,86.6073333 155.866,87.526 C155.583333,87.8793333 155.300667,88.1443333 155.018,88.321 C154.735333,88.4976667 154.488,88.6566667 154.276,88.798 C154.205333,88.586 154.099333,88.268 153.958,87.844 C153.958,87.5613333 153.887333,87.1373333 153.746,86.572 C153.463333,85.2293333 153.251333,84.2753333 153.11,83.71 C152.827333,83.074 152.544667,82.544 152.262,82.12 C151.979333,81.7666667 151.696667,81.484 151.414,81.272 C151.060667,80.9893333 150.672,80.7773333 150.248,80.636 C150.036,80.5653333 149.824,80.5123333 149.612,80.477 C149.4,80.4416667 149.188,80.4593333 148.976,80.53 C148.622667,80.53 148.234,80.6006667 147.81,80.742 C147.315333,80.954 146.785333,81.272 146.22,81.696 C145.584,82.1906667 144.877333,82.8973333 144.1,83.816 C143.676,84.3813333 143.110667,85.088 142.404,85.936 C142.192,86.2186667 141.909333,86.6073333 141.556,87.102 C141.202667,87.5966667 141.026,87.844 141.026,87.844 L141.026,87.844 L141.662,85.724 L143.146,80.742 C143.852667,78.4806667 144.382667,76.8553333 144.736,75.866 L144.736,75.866 L144.842,75.23 C144.983333,74.5233333 144.736,73.9226667 144.1,73.428 C143.746667,73.0746667 143.305,72.9333333 142.775,73.004 C142.245,73.0746667 141.803333,73.322 141.45,73.746 C141.167333,74.0286667 140.849333,74.4173333 140.496,74.912 L140.496,74.912 L139.648,76.184 C139.365333,76.608 139.082667,76.9966667 138.8,77.35 C138.517333,77.8446667 138.27,78.304 138.058,78.728 C137.775333,79.152 137.810667,79.576 138.164,80 C138.376,80.2826667 138.658667,80.424 139.012,80.424 L139.012,80.424 L137.74,84.558 L136.256,89.54 L135.514,92.084 L135.09,93.356 L134.878,93.992 L134.878,94.31 L134.772,94.734 C134.56,95.4406667 134.701333,96.0413333 135.196,96.536 C135.549333,96.96 136.008667,97.1896667 136.574,97.225 Z M155.601,108.249 C156.131,108.284333 156.608,108.107667 157.032,107.719 C157.456,107.330333 157.668,106.853333 157.668,106.288 C157.738667,105.369333 157.915333,104.168 158.198,102.684 C158.41,101.553333 158.657333,100.281333 158.94,98.868 C159.364,97.2426667 159.858667,95.4406667 160.424,93.462 C160.424,93.462 160.441667,93.4973333 160.477,93.568 C160.512333,93.6386667 160.565333,93.7093333 160.636,93.78 C161.766667,95.5466667 163.392,96.96 165.512,98.02 C166.006667,98.3026667 166.501333,98.5146667 166.996,98.656 L166.996,98.656 L167.844,98.868 C167.985333,98.9386667 168.126667,98.974 168.268,98.974 L168.268,98.974 L168.692,98.974 C169.681333,99.0446667 170.776667,98.9386667 171.978,98.656 C173.674,98.3026667 175.511333,97.596 177.49,96.536 C180.740667,94.84 183.814667,92.614 186.712,89.858 C188.196,88.5153333 189.503333,87.1373333 190.634,85.724 C191.976667,83.9573333 192.930667,82.2613333 193.496,80.636 C193.708,80.0706667 193.531333,79.682 192.966,79.47 C192.471333,79.258 192.082667,79.4346667 191.8,80 C191.234667,81.3426667 190.280667,82.7913333 188.938,84.346 C187.878,85.618 186.606,86.89 185.122,88.162 C182.295333,90.5646667 179.327333,92.4726667 176.218,93.886 C174.380667,94.734 172.755333,95.2993333 171.342,95.582 C170.423333,95.7233333 169.646,95.7586667 169.01,95.688 L169.01,95.688 L168.798,95.688 C168.727333,95.6173333 168.656667,95.582 168.586,95.582 C168.444667,95.582 168.303333,95.5466667 168.162,95.476 C167.808667,95.3346667 167.455333,95.158 167.102,94.946 C165.618,94.098 164.522667,93.0733333 163.816,91.872 C163.533333,91.236 163.321333,90.5646667 163.18,89.858 C163.109333,89.434 163.109333,88.9746667 163.18,88.48 C164.098667,87.5613333 164.946667,86.784 165.724,86.148 C166.784,85.2293333 167.844,84.4166667 168.904,83.71 C170.105333,82.862 171.200667,82.1553333 172.19,81.59 C173.462,80.954 174.628,80.4946667 175.688,80.212 C176.253333,80.1413333 176.677333,79.8586667 176.96,79.364 C177.242667,78.8693333 177.313333,78.357 177.172,77.827 C177.030667,77.297 176.730333,76.873 176.271,76.555 C175.811667,76.237 175.299333,76.1486667 174.734,76.29 C173.391333,76.5726667 171.942667,77.138 170.388,77.986 C169.186667,78.622 167.914667,79.3993333 166.572,80.318 C165.794667,80.8833333 164.911333,81.5546667 163.922,82.332 C164.275333,81.272 164.593333,80.3533333 164.876,79.576 C166.218667,78.3746667 167.738,76.9613333 169.434,75.336 C171.342,73.4986667 173.179333,71.5906667 174.946,69.612 C178.762,65.3013333 181.942,60.9906667 184.486,56.68 C186.111333,53.9946667 187.348,51.5566667 188.196,49.366 C188.337333,48.942 188.549333,48.306 188.832,47.458 C189.185333,46.186 189.362,45.5146667 189.362,45.444 C189.644667,44.2426667 189.786,43.536 189.786,43.324 C189.927333,42.4053333 189.962667,41.5926667 189.892,40.886 C189.821333,40.3913333 189.750667,39.9673333 189.68,39.614 C189.468,38.978 189.185333,38.448 188.832,38.024 C188.549333,37.7413333 188.266667,37.494 187.984,37.282 C187.630667,37.1406667 187.242,37.0346667 186.818,36.964 C186.464667,36.8933333 186.111333,36.8933333 185.758,36.964 C185.758,36.964 185.652,36.9993333 185.44,37.07 C185.369333,37.07 185.263333,37.1053333 185.122,37.176 C184.344667,37.388 183.567333,37.7413333 182.79,38.236 C182.224667,38.66 181.659333,39.1546667 181.094,39.72 C179.468667,41.204 177.702,43.3593333 175.794,46.186 C173.391333,49.9313333 170.882667,54.666 168.268,60.39 C166.218667,64.842 164.204667,69.7533333 162.226,75.124 C160.176667,80.4946667 158.480667,85.512 157.138,90.176 C156.29,93.0733333 155.583333,95.6526667 155.018,97.914 C154.664667,99.398 154.382,100.740667 154.17,101.942 C153.887333,103.638 153.710667,105.051333 153.64,106.182 C153.64,106.676667 153.834333,107.136 154.223,107.56 C154.611667,107.984 155.071,108.213667 155.601,108.249 Z M166.254,75.654 C168.091333,70.778 169.964,66.22 171.872,61.98 C174.416,56.468 176.818667,51.91 179.08,48.306 C180.705333,45.6913333 182.224667,43.7126667 183.638,42.37 C184.556667,41.4513333 185.404667,40.886 186.182,40.674 C186.182,40.8153333 186.217333,40.992 186.288,41.204 C186.288,41.6986667 186.252667,42.2286667 186.182,42.794 C186.182,42.9353333 186.076,43.536 185.864,44.596 C185.864,44.808 185.793333,45.126 185.652,45.55 L185.652,45.55 L185.44,46.398 C185.157333,47.5993333 184.980667,48.2 184.91,48.2 C184.132667,50.6733333 183.178667,53.0406667 182.048,55.302 C180.988,57.2806667 179.645333,59.4713333 178.02,61.874 C176.536,63.994 174.946,66.0786667 173.25,68.128 C170.988667,70.8133333 168.656667,73.322 166.254,75.654 Z M204.202,126.428 C205.05,126.569333 205.933333,126.534 206.852,126.322 C207.7,126.180667 208.530333,125.933333 209.343,125.58 C210.155667,125.226667 210.88,124.838 211.516,124.414 C212.788,123.566 214.024667,122.541333 215.226,121.34 C216.215333,120.350667 217.24,119.184667 218.3,117.842 C219.006667,116.923333 219.89,115.686667 220.95,114.132 C222.434,112.012 224.024,109.468 225.72,106.5 C228.052,102.118667 230.207333,97.7373333 232.186,93.356 C235.719333,91.5186667 237.945333,90.388 238.864,89.964 C242.609333,87.9853333 245.224,86.572 246.708,85.724 C248.192,84.9466667 249.499333,84.2046667 250.63,83.498 C252.184667,82.5086667 253.421333,81.6253333 254.34,80.848 L254.34,80.848 L254.446,80.848 C254.940667,80.3533333 254.940667,79.8233333 254.446,79.258 C253.951333,78.6926667 253.421333,78.6573333 252.856,79.152 C252.008,79.9293333 250.877333,80.7773333 249.464,81.696 C248.404,82.4026667 247.167333,83.1446667 245.754,83.922 C243.422,85.2646667 240.807333,86.678 237.91,88.162 C236.920667,88.7273333 235.436667,89.5046667 233.458,90.494 C233.528667,90.4233333 233.564,90.3526667 233.564,90.282 C234.624,87.8086667 235.719333,85.0526667 236.85,82.014 C237.486,80.318 237.980667,78.9046667 238.334,77.774 C238.616667,76.926 238.864,76.2193333 239.076,75.654 C239.358667,74.7353333 239.535333,73.958 239.606,73.322 L239.606,73.322 L239.712,73.216 C239.782667,72.8626667 239.712,72.5446667 239.5,72.262 C239.005333,71.4846667 238.369333,71.3433333 237.592,71.838 C237.38,72.05 236.991333,72.4033333 236.426,72.898 L236.426,72.898 L235.154,73.852 C234.677,74.223 234.1205,74.653625 233.4845,75.143875 L232.822,75.654 C230.49,77.35 228.9,78.516 228.052,79.152 C226.426667,80.3533333 224.836667,81.4486667 223.282,82.438 C221.374,83.71 219.713333,84.6993333 218.3,85.406 C217.381333,85.9006667 216.533333,86.3246667 215.756,86.678 C215.261333,86.8193333 214.837333,86.9253333 214.484,86.996 C214.201333,87.0666667 213.954,87.1373333 213.742,87.208 L213.742,87.208 L213.742,86.784 C213.883333,86.0773333 214.130667,85.2293333 214.484,84.24 C215.826667,80.848 217.593333,77.456 219.784,74.064 C220.349333,73.216 220.314,72.4033333 219.678,71.626 C219.324667,71.202 218.865333,70.9723333 218.3,70.937 C217.734667,70.9016667 217.24,71.0606667 216.816,71.414 C216.533333,71.6966667 216.250667,72.0146667 215.968,72.368 C215.826667,72.58 215.614667,72.8626667 215.332,73.216 C214.978667,73.7106667 214.59,74.3113333 214.166,75.018 L214.166,75.018 L212.046,78.41 L211.94,78.516 C211.657333,79.0106667 211.692667,79.47 212.046,79.894 L212.046,79.894 L212.47,80.106 C212.046,81.166 211.692667,82.1553333 211.41,83.074 C210.986,84.346 210.738667,85.406 210.668,86.254 C210.597333,86.6073333 210.562,86.9253333 210.562,87.208 C210.632667,87.7026667 210.703333,88.1266667 210.774,88.48 C210.844667,88.7626667 210.986,89.01 211.198,89.222 C211.41,89.5046667 211.692667,89.7166667 212.046,89.858 C212.187333,89.9286667 212.328667,89.9993333 212.47,90.07 C212.540667,90.07 212.664333,90.0876667 212.841,90.123 C213.017667,90.1583333 213.212,90.176 213.424,90.176 C213.989333,90.176 214.59,90.07 215.226,89.858 C215.720667,89.7166667 216.250667,89.5046667 216.816,89.222 C217.593333,88.8686667 218.512,88.4093333 219.572,87.844 C221.621333,86.572 224.907333,84.2753333 229.43,80.954 L229.43,80.954 L234.2,77.456 C234.694667,77.032 235.154,76.6786667 235.578,76.396 L235.578,76.396 L235.472,76.714 L235.472,76.714 L233.776,80.742 C232.786667,82.9326667 231.55,85.5826667 230.066,88.692 C229.218,90.388 228.440667,91.978 227.734,93.462 C225.543333,94.5926667 223.706,95.582 222.222,96.43 C215.579333,99.9633333 210.456,103.002 206.852,105.546 C205.509333,106.535333 204.308,107.489333 203.248,108.408 C201.905333,109.609333 200.845333,110.74 200.068,111.8 C199.573333,112.577333 199.184667,113.319333 198.902,114.026 C198.831333,114.167333 198.725333,114.556 198.584,115.192 C198.442667,115.686667 198.336667,116.075333 198.266,116.358 C197.912667,118.124667 197.948,119.785333 198.372,121.34 C198.937333,123.177333 199.997333,124.590667 201.552,125.58 C202.329333,126.004 203.212667,126.286667 204.202,126.428 Z M206.216,123.354 C204.944,123.707333 203.848667,123.636667 202.93,123.142 C201.87,122.647333 201.163333,121.799333 200.81,120.598 C200.386,119.467333 200.28,118.195333 200.492,116.782 C200.562667,116.57 200.633333,116.216667 200.704,115.722 C200.916,115.156667 201.022,114.838667 201.022,114.768 C201.234,114.273333 201.552,113.708 201.976,113.072 C202.612,112.153333 203.530667,111.128667 204.732,109.998 C205.650667,109.15 206.746,108.231333 208.018,107.242 C209.996667,105.758 212.47,104.168 215.438,102.472 C217.840667,100.988 220.384667,99.504 223.07,98.02 C223.776667,97.6666667 224.836667,97.1366667 226.25,96.43 C224.766,99.3273333 223.352667,101.977333 222.01,104.38 C220.596667,106.924 219.112667,109.397333 217.558,111.8 C215.720667,114.626667 214.024667,116.958667 212.47,118.796 C211.41,119.997333 210.456,120.951333 209.608,121.658 C209.113333,122.011333 208.548,122.364667 207.912,122.718 C207.346667,123.000667 206.781333,123.212667 206.216,123.354 Z M252.75,94.946 C253.386,95.0166667 253.951333,95.0166667 254.446,94.946 C255.364667,94.8046667 256.283333,94.416 257.202,93.78 C257.838,93.356 258.438667,92.7553333 259.004,91.978 C259.993333,90.8473333 260.841333,89.4693333 261.548,87.844 C261.972,87.0666667 262.29,86.3246667 262.502,85.618 C262.643333,84.982 262.784667,84.1693333 262.926,83.18 C262.996667,83.1093333 263.032,82.968 263.032,82.756 L263.032,82.756 L263.138,82.862 C263.986,83.074 264.763333,83.2153333 265.47,83.286 C267.166,83.498 268.756,83.4273333 270.24,83.074 C272.006667,82.65 273.490667,81.9433333 274.692,80.954 C275.186667,80.53 275.222,80.0883333 274.798,79.629 C274.374,79.1696667 273.95,79.152 273.526,79.576 C272.536667,80.424 271.335333,80.9893333 269.922,81.272 C268.579333,81.5546667 267.166,81.6253333 265.682,81.484 C265.046,81.3426667 264.374667,81.166 263.668,80.954 L263.668,80.954 L263.244,80.848 C263.244,80.848 263.226333,80.8303333 263.191,80.795 C263.179222,80.7832222 263.169407,80.7734074 263.161556,80.7655556 L263.138,80.742 C263.138,79.9646667 263.102667,79.1873333 263.032,78.41 C262.961333,77.9153333 262.855333,77.4913333 262.714,77.138 C262.572667,76.5726667 262.360667,76.1133333 262.078,75.76 C261.866,75.4773333 261.618667,75.2653333 261.336,75.124 C261.124,75.0533333 260.947333,74.9826667 260.806,74.912 C260.523333,74.8413333 260.240667,74.8766667 259.958,75.018 C259.675333,75.0886667 259.428,75.23 259.216,75.442 C259.145333,75.5126667 259.092333,75.601 259.057,75.707 C259.021667,75.813 258.968667,75.9013333 258.898,75.972 C258.827333,76.184 258.756667,76.4666667 258.686,76.82 C258.615333,77.668 258.792,78.5513333 259.216,79.47 C259.569333,80.318 260.064,81.0246667 260.7,81.59 C260.7,82.0846667 260.664667,82.5086667 260.594,82.862 C260.452667,83.71 260.276,84.3813333 260.064,84.876 C259.852,85.4413333 259.569333,86.0773333 259.216,86.784 C258.509333,88.1266667 257.767333,89.2573333 256.99,90.176 C256.495333,90.6 256.000667,90.9886667 255.506,91.342 C255.011333,91.6246667 254.552,91.766 254.128,91.766 C253.562667,91.766 253.209333,91.66 253.068,91.448 C252.856,91.236 252.679333,90.8826667 252.538,90.388 C252.396667,89.8933333 252.326,89.3633333 252.326,88.798 C252.326,88.0913333 252.396667,87.4553333 252.538,86.89 C252.608667,86.3953333 252.75,85.724 252.962,84.876 C253.103333,84.3106667 253.28,83.6746667 253.492,82.968 C254.481333,80.2826667 255.859333,77.9506667 257.626,75.972 C258.05,75.4773333 258.509333,75.018 259.004,74.594 C259.498667,74.17 259.958,73.852 260.382,73.64 L260.382,73.64 L260.488,73.64 L260.488,73.534 C260.7,74.6646667 261.371333,75.23 262.502,75.23 C263.067333,75.3006667 263.544333,75.124 263.933,74.7 C264.321667,74.276 264.516,73.8166667 264.516,73.322 L264.516,73.322 L264.516,72.368 C264.445333,72.0853333 264.374667,71.8026667 264.304,71.52 C264.162667,71.096 263.950667,70.7073333 263.668,70.354 C263.314667,69.8593333 262.855333,69.506 262.29,69.294 C262.148667,69.294 261.972,69.2586667 261.76,69.188 L261.76,69.188 L261.018,69.188 C260.735333,69.188 260.417333,69.2233333 260.064,69.294 C259.569333,69.4353333 259.074667,69.612 258.58,69.824 C257.802667,70.1773333 257.025333,70.672 256.248,71.308 C255.612,71.8733333 255.011333,72.474 254.446,73.11 C252.326,75.5126667 250.700667,78.3393333 249.57,81.59 C249.287333,82.438 249.075333,83.2153333 248.934,83.922 C248.792667,84.4166667 248.722,84.8406667 248.722,85.194 C248.580667,85.6886667 248.51,86.0773333 248.51,86.36 C248.368667,87.2786667 248.333333,88.162 248.404,89.01 C248.545333,89.9993333 248.757333,90.918 249.04,91.766 C249.534667,92.8966667 250.241333,93.7446667 251.16,94.31 C251.230667,94.3806667 251.336667,94.4513333 251.478,94.522 C251.69,94.5926667 251.866667,94.6633333 252.008,94.734 C252.149333,94.8046667 252.290667,94.84 252.432,94.84 L252.432,94.84 L252.75,94.946 Z M270.346,96.536 C270.840667,96.6773333 271.370667,96.6773333 271.936,96.536 C272.218667,96.4653333 272.572,96.324 272.996,96.112 C273.914667,95.688 274.939333,94.946 276.07,93.886 C276.847333,93.1793333 277.695333,92.3666667 278.614,91.448 C279.462,90.5293333 281.016667,88.7626667 283.278,86.148 L283.278,86.148 L285.08,84.134 C284.585333,85.5473333 284.267333,86.784 284.126,87.844 C284.055333,88.48 284.02,88.9746667 284.02,89.328 C284.02,89.964 284.090667,90.494 284.232,90.918 L284.232,90.918 L284.338,91.13 L284.444,91.342 C284.514667,91.554 284.585333,91.7306667 284.656,91.872 C284.797333,92.0133333 284.903333,92.1546667 284.974,92.296 C285.186,92.4373333 285.362667,92.5786667 285.504,92.72 C285.645333,92.7906667 285.786667,92.8613333 285.928,92.932 C286.14,93.0026667 286.352,93.0733333 286.564,93.144 L286.564,93.144 L287.412,93.144 C287.412,93.144 287.482667,93.1086667 287.624,93.038 C288.048,92.8966667 288.507333,92.6846667 289.002,92.402 C289.284667,92.19 289.638,91.9073333 290.062,91.554 C290.486,91.2713333 291.122,90.706 291.97,89.858 C292.323333,89.5753333 292.694333,89.2396667 293.083,88.851 C293.471667,88.4623333 293.895667,88.0383333 294.355,87.579 C294.814333,87.1196667 295.185333,86.7486667 295.468,86.466 C296.033333,85.9713333 296.598667,85.4413333 297.164,84.876 C297.8,84.3106667 298.400667,83.7806667 298.966,83.286 C299.672667,82.7913333 300.308667,82.332 300.874,81.908 C301.651333,81.4133333 302.322667,81.06 302.888,80.848 L302.888,80.848 L302.994,80.848 C303.488667,80.636 303.612333,80.2473333 303.365,79.682 C303.117667,79.1166667 302.746667,78.9753333 302.252,79.258 C301.545333,79.5406667 300.803333,79.9646667 300.026,80.53 C299.460667,80.954 298.789333,81.484 298.012,82.12 C297.446667,82.6146667 296.846,83.1446667 296.21,83.71 L296.21,83.71 L294.408,85.406 C292.994667,86.678 291.793333,87.738 290.804,88.586 C290.168,89.1513333 289.532,89.6106667 288.896,89.964 C288.472,90.176 288.154,90.3526667 287.942,90.494 C287.588667,90.6353333 287.341333,90.706 287.2,90.706 L287.2,90.706 L287.094,90.706 L287.094,90.282 C287.094,90.07 287.129333,89.8226667 287.2,89.54 C287.270667,89.1866667 287.341333,88.8686667 287.412,88.586 C287.765333,87.314 288.295333,85.9006667 289.002,84.346 C289.426,83.286 290.115,81.802 291.069,79.894 C292.023,77.986 292.676667,76.5726667 293.03,75.654 L293.03,75.654 L293.242,74.7 C293.454,73.7813333 293.136,73.11 292.288,72.686 C291.793333,72.4033333 291.298667,72.3503333 290.804,72.527 C290.309333,72.7036667 289.920667,73.0393333 289.638,73.534 L289.638,73.534 L289.426,73.958 C289.355333,74.0286667 289.143333,74.4526667 288.79,75.23 C288.507333,75.654 288.224667,76.1133333 287.942,76.608 C287.376667,77.5973333 286.740667,78.5513333 286.034,79.47 C284.620667,81.378 283.172,83.1446667 281.688,84.77 C280.204,86.466 278.614,88.1266667 276.918,89.752 C276.07,90.6 275.257333,91.3066667 274.48,91.872 C273.42,92.72 272.536667,93.2853333 271.83,93.568 C271.618,93.6386667 271.476667,93.674 271.406,93.674 L271.406,93.674 L271.3,93.568 C271.3,93.2146667 271.370667,92.7906667 271.512,92.296 C271.582667,91.872 271.688667,91.3773333 271.83,90.812 C272.395333,88.904 273.208,86.8546667 274.268,84.664 C275.116,82.6853333 276.105333,80.636 277.236,78.516 C277.66,77.668 278.19,76.6786667 278.826,75.548 C279.108667,75.0533333 279.391333,74.594 279.674,74.17 L279.674,74.17 L280.098,73.428 L280.31,73.11 L280.31,73.004 L280.442827,72.8600494 C280.77435,72.4692016 280.924407,72.0225185 280.893,71.52 C280.857667,70.9546667 280.628,70.4776667 280.204,70.089 C279.78,69.7003333 279.285333,69.5413333 278.72,69.612 C278.154667,69.6826667 277.695333,69.93 277.342,70.354 C277.200667,70.4246667 277.13,70.46 277.13,70.46 L277.13,70.46 L276.918,70.884 L276.6,71.308 C276.458667,71.52 276.317333,71.7673333 276.176,72.05 C275.893333,72.5446667 275.575333,73.0746667 275.222,73.64 C274.798,74.488 274.268,75.5126667 273.632,76.714 C272.501333,79.046 271.547333,81.2013333 270.77,83.18 C270.275333,84.3106667 269.851333,85.406 269.498,86.466 C269.003333,87.738 268.65,88.904 268.438,89.964 C268.296667,90.6706667 268.190667,91.3066667 268.12,91.872 C268.049333,92.72 268.084667,93.462 268.226,94.098 C268.367333,94.5926667 268.544,95.0166667 268.756,95.37 C269.18,95.9353333 269.71,96.324 270.346,96.536 Z" id="Thankyou" fill="#0D0D0F" fill-rule="nonzero"></path>
    </g>
</svg>