<?xml version="1.0" encoding="UTF-8"?>
<svg width="279px" height="151px" viewBox="0 0 279 151" version="1.1" xmlns="http://www.w3.org/2000/svg" xmlns:xlink="http://www.w3.org/1999/xlink">
    <!-- Generator: Sketch 61.2 (89653) - https://sketch.com -->
    <title>Welcome@2x</title>
    <desc>Created with Sketch.</desc>
    <g id="Page-2" stroke="none" stroke-width="1" fill="none" fill-rule="evenodd">
        <path d="M7.208,150.536 C7.77333333,150.465333 8.162,150.359333 8.374,150.218 C9.57533333,149.864667 10.8826667,149.193333 12.296,148.204 C13.2146667,147.497333 14.204,146.614 15.264,145.554 C16.112,144.776667 16.9953333,143.858 17.914,142.798 L17.914,142.798 L20.458,139.936 C20.7406667,139.582667 21.4826667,138.717 22.684,137.339 C23.8853333,135.961 24.7686667,134.883333 25.334,134.106 C27.5246667,131.562 30.74,127.710667 34.98,122.552 L34.98,122.552 L54.06,99.126 L63.6,87.572 C63.812,87.2893333 64.6246667,86.3 66.038,84.604 C67.31,83.12 68.1226667,82.166 68.476,81.742 C69.6773333,80.3993333 70.49,79.4806667 70.914,78.986 C71.0553333,78.9153333 71.179,78.8093333 71.285,78.668 C71.391,78.5266667 71.497,78.403 71.603,78.297 C71.709,78.191 71.815,78.0673333 71.921,77.926 C72.027,77.7846667 72.1153333,77.6786667 72.186,77.608 C72.2566667,77.5373333 72.451,77.3606667 72.769,77.078 C73.087,76.7953333 73.3166667,76.548 73.458,76.336 C74.518,75.4173333 75.4366667,74.64 76.214,74.004 C76.85,73.5093333 77.3446667,73.156 77.698,72.944 C78.0513333,72.6613333 78.44,72.4493333 78.864,72.308 C78.7933333,73.0146667 78.546,74.0393333 78.122,75.382 C77.8393333,76.3006667 77.4506667,77.4666667 76.956,78.88 L76.956,78.88 L76.32,80.576 C76.108,81.0706667 75.896,81.6713333 75.684,82.378 C74.9773333,84.498 74.2353333,86.9713333 73.458,89.798 C72.822,92.2713333 72.2213333,94.7446667 71.656,97.218 C71.0906667,99.9033333 70.6313333,102.376667 70.278,104.638 C69.3593333,110.432667 68.9,115.556 68.9,120.008 C68.9,122.905333 69.112,125.52 69.536,127.852 C69.8186667,129.265333 70.172,130.572667 70.596,131.774 C71.0906667,133.187333 71.762,134.459333 72.61,135.59 C73.5286667,136.862 74.6946667,137.851333 76.108,138.558 C76.8853333,138.982 77.592,139.264667 78.228,139.406 C78.5106667,139.476667 78.864,139.547333 79.288,139.618 L79.288,139.618 L79.924,139.618 C80.136,139.688667 80.3126667,139.724 80.454,139.724 C81.8673333,139.724 83.3513333,139.370667 84.906,138.664 C86.0366667,138.098667 87.2026667,137.356667 88.404,136.438 C90.2413333,135.024667 92.1493333,133.258 94.128,131.138 C95.5413333,129.512667 97.1666667,127.534 99.004,125.202 C101.689333,121.668667 104.551333,117.464 107.59,112.588 C112.183333,105.168 117.094667,96.37 122.324,86.194 C126.634667,77.6433333 130.980667,68.5626667 135.362,58.952 C139.39,49.9066667 143.312,40.614 147.128,31.074 C149.177333,25.986 150.979333,21.2866667 152.534,16.976 C153.452667,14.432 154.265333,12.0646667 154.972,9.874 C155.961333,6.83533333 156.668,4.362 157.092,2.454 C157.304,1.606 156.968333,1.076 156.085,0.864 C155.201667,0.652 154.654,0.97 154.442,1.818 L154.442,1.818 L154.442,1.924 C154.018,3.69066667 153.346667,6.058 152.428,9.026 C151.721333,11.146 150.908667,13.5133333 149.99,16.128 C148.435333,20.368 146.633333,25.032 144.584,30.12 C141.192,38.6706667 137.27,47.8926667 132.818,57.786 C128.436667,67.326 124.055333,76.336 119.674,84.816 C114.444667,94.9213333 109.533333,103.648667 104.94,110.998 C101.972,115.732667 99.1453333,119.831333 96.46,123.294 C94.9053333,125.343333 93.3153333,127.216 91.69,128.912 C89.782,131.032 88.0153333,132.657333 86.39,133.788 C85.4006667,134.494667 84.4113333,135.06 83.422,135.484 C82.362,135.978667 81.408,136.190667 80.56,136.12 C80.4893333,136.12 80.3833333,136.102333 80.242,136.067 C80.1006667,136.031667 79.9946667,136.014 79.924,136.014 C79.5706667,135.943333 79.288,135.908 79.076,135.908 C78.7226667,135.766667 78.2986667,135.59 77.804,135.378 C76.956,134.883333 76.2493333,134.212 75.684,133.364 C74.624,131.88 73.882,129.795333 73.458,127.11 C73.1046667,125.131333 72.928,122.764 72.928,120.008 C72.9986667,115.768 73.4933333,110.892 74.412,105.38 C74.836,102.694667 75.2953333,100.256667 75.79,98.066 C76.2846667,95.734 76.85,93.3313333 77.486,90.858 C78.122,88.4553333 78.7933333,86.0526667 79.5,83.65 C79.712,83.014 79.8886667,82.4486667 80.03,81.954 L80.03,81.954 L80.666,80.152 C81.1606667,78.8093333 81.5493333,77.5726667 81.832,76.442 C82.256,74.746 82.468,73.3326667 82.468,72.202 C82.468,71.6366667 82.4326667,71.1773333 82.362,70.824 C82.2913333,70.612 82.2206667,70.4706667 82.15,70.4 L82.15,70.4 L81.938,69.976 C81.8673333,69.8346667 81.7613333,69.658 81.62,69.446 C81.5493333,69.3753333 81.3726667,69.234 81.09,69.022 C80.7366667,68.7393333 80.348,68.598 79.924,68.598 C79.8533333,68.5273333 79.7473333,68.492 79.606,68.492 L79.606,68.492 L79.394,68.492 C79.182,68.5626667 79.0406667,68.598 78.97,68.598 C78.6166667,68.6686667 78.3693333,68.7393333 78.228,68.81 C77.9453333,68.8806667 77.7333333,68.9513333 77.592,69.022 C76.956,69.3046667 76.32,69.6933333 75.684,70.188 C75.26,70.4706667 74.7653333,70.8946667 74.2,71.46 C73.2813333,72.1666667 72.3273333,73.05 71.338,74.11 C71.1966667,74.2513333 71.0553333,74.4103333 70.914,74.587 C70.7726667,74.7636667 70.6136667,74.9403333 70.437,75.117 L70.437,75.117 L69.96,75.594 C69.8186667,75.7353333 69.6773333,75.8943333 69.536,76.071 L69.536,76.071 L69.112,76.601 C68.9706667,76.7776667 68.8646667,76.9366667 68.794,77.078 C68.2993333,77.5726667 67.4866667,78.5266667 66.356,79.94 L66.356,79.94 L52.046,97.43 C44.3433333,106.899333 37.9126667,114.637333 32.754,120.644 C28.4433333,125.802667 25.1926667,129.654 23.002,132.198 C21.8006667,133.611333 20.14,135.484 18.02,137.816 L18.02,137.816 L15.582,140.572 C14.5926667,141.561333 13.7093333,142.409333 12.932,143.116 C11.9426667,144.034667 11.024,144.776667 10.176,145.342 C9.116,146.119333 8.19733333,146.578667 7.42,146.72 C6.996,146.861333 6.64266667,146.896667 6.36,146.826 C6.148,146.755333 5.97133333,146.649333 5.83,146.508 C5.83,146.508 5.82803704,146.506037 5.82411111,146.502111 L5.618,146.296 C5.618,146.225333 5.58266667,146.154667 5.512,146.084 L5.512,146.084 L5.406,145.766 C5.33533333,145.695333 5.3,145.624667 5.3,145.554 L5.3,145.554 L5.194,145.13 L5.088,144.812 C5.01733333,144.741333 4.982,144.494 4.982,144.07 C4.69933333,142.232667 4.73466667,139.900667 5.088,137.074 C5.3,135.731333 5.47666667,134.53 5.618,133.47 L5.618,133.47 L5.83,132.622 C5.83,132.480667 5.86533333,132.304 5.936,132.092 C6.00666667,131.88 6.042,131.738667 6.042,131.668 L6.042,131.668 L6.466,129.866 L7.42,126.368 L7.632,125.414 L7.95,124.566 L8.48,122.764 C9.752,118.665333 10.494,116.298 10.706,115.662 L10.706,115.662 L11.872,112.058 C12.4373333,110.432667 12.8613333,109.266667 13.144,108.56 L13.144,108.56 L15.688,101.458 C18.5853333,93.8966667 22.3306667,84.6393333 26.924,73.686 C29.6093333,67.326 33.6373333,58.104 39.008,46.02 L39.008,46.02 L45.05,32.24 C46.4633333,29.06 47.4526667,26.728 48.018,25.244 L48.018,25.244 L49.502,21.746 L50.88,18.142 C51.304,17.0113333 50.9506667,16.1633333 49.82,15.598 C49.3253333,15.386 48.813,15.3683333 48.283,15.545 C47.753,15.7216667 47.382,16.0573333 47.17,16.552 L47.17,16.552 L47.064,16.552 C46.3573333,18.3186667 45.5446667,20.1206667 44.626,21.958 C43.7073333,23.7246667 42.718,25.456 41.658,27.152 C40.4566667,29.1306667 39.3613333,30.756 38.372,32.028 C37.0293333,33.7946667 35.722,35.2433333 34.45,36.374 C34.3793333,36.4446667 34.3086667,36.5153333 34.238,36.586 C33.9553333,36.9393333 33.8316667,37.3633333 33.867,37.858 C33.9023333,38.3526667 34.0966667,38.759 34.45,39.077 C34.8033333,39.395 35.245,39.5363333 35.775,39.501 C36.305,39.4656667 36.7113333,39.2713333 36.994,38.918 C37.3473333,38.494 37.736,38.0346667 38.16,37.54 L38.16,37.54 L35.086,44.324 C30.1393333,55.56 26.1466667,64.782 23.108,71.99 C18.7973333,82.0246667 15.0166667,91.388 11.766,100.08 L11.766,100.08 L9.222,107.182 C8.93933333,107.959333 8.55066667,109.160667 8.056,110.786 L8.056,110.786 L6.784,114.39 C6.572,115.096667 5.83,117.499333 4.558,121.598 L4.558,121.598 L3.71,124.354 L3.498,125.308 L2.544,129.018 L2.12,130.82 C2.12,130.890667 2.08466667,131.032 2.014,131.244 C1.94333333,131.456 1.87266667,131.632667 1.802,131.774 L1.802,131.774 L1.696,132.728 C1.484,133.858667 1.30733333,135.166 1.166,136.65 C0.954,138.275333 0.848,139.582667 0.848,140.572 C0.848,142.126667 0.954,143.504667 1.166,144.706 C1.23666667,145.200667 1.30733333,145.554 1.378,145.766 L1.378,145.766 L1.484,146.296 L1.696,146.826 C1.76666667,147.038 1.83733333,147.214667 1.908,147.356 C2.12,147.709333 2.226,147.921333 2.226,147.992 C2.36733333,148.133333 2.50866667,148.31 2.65,148.522 C2.65,148.592667 2.79133333,148.769333 3.074,149.052 C3.78066667,149.829333 4.664,150.288667 5.724,150.43 C6.148,150.500667 6.39533333,150.536 6.466,150.536 L6.466,150.536 L7.208,150.536 Z M138.966,94.25 C139.672667,94.3913333 140.485333,94.356 141.404,94.144 C141.969333,94.0733333 142.640667,93.8613333 143.418,93.508 C144.407333,93.084 145.538,92.4833333 146.81,91.706 C148.647333,90.5046667 150.626,88.95 152.746,87.042 C154.442,85.558 156.244,83.8266667 158.152,81.848 C158.505333,81.4946667 158.505333,81.106 158.152,80.682 C157.728,80.1873333 157.304,80.152 156.88,80.576 C154.972,82.3426667 153.134667,83.9326667 151.368,85.346 C149.177333,87.042 147.198667,88.42 145.432,89.48 C144.301333,90.116 143.276667,90.6106667 142.358,90.964 C141.792667,91.176 141.298,91.3173333 140.874,91.388 C140.308667,91.4586667 139.884667,91.4233333 139.602,91.282 L139.602,91.282 L139.39,91.282 C139.39,91.2113333 139.354667,91.176 139.284,91.176 L139.284,91.176 L139.178,91.07 L138.966,90.964 L138.648,90.752 C138.648,90.6813333 138.595,90.593 138.489,90.487 L138.489,90.487 L138.33,90.328 L138.224,90.116 L138.118,89.904 L138.118,89.798 L138.012,89.48 L137.906,89.162 L137.906,89.162 L137.906,88.844 L137.8,88.526 C137.8,88.526 137.817667,88.4376667 137.853,88.261 C137.888333,88.0843333 137.906,87.9253333 137.906,87.784 L137.906,87.784 L137.906,87.519 C137.906,87.3423333 137.941333,87.1833333 138.012,87.042 C138.153333,86.1233333 138.471333,85.0986667 138.966,83.968 C139.036667,83.8031111 139.109296,83.6362593 139.183889,83.4674444 L139.406,82.971 L139.458367,82.9889112 C139.558722,83.0177633 139.670367,83.0296805 139.793302,83.0246627 L139.92,83.014 C141.333333,82.802 142.782,82.272 144.266,81.424 C145.538,80.7173333 146.739333,79.834 147.87,78.774 C148.93,77.7846667 149.954667,76.7246667 150.944,75.594 C151.368,75.0286667 151.792,74.428 152.216,73.792 L152.216,73.792 L152.852,72.732 L153.064,72.202 L153.382,71.566 L153.276,71.672 C153.7,70.824 153.841333,69.9406667 153.7,69.022 C153.558667,67.8913333 153.028667,67.008 152.11,66.372 C151.191333,65.736 150.166667,65.524 149.036,65.736 C148.470667,65.8773333 148.046667,66.0186667 147.764,66.16 C147.410667,66.2306667 147.022,66.4073333 146.598,66.69 C146.598,66.69 146.28,66.9373333 145.644,67.432 C145.432,67.644 145.184667,67.856 144.902,68.068 C144.478,68.492 144.018667,68.9866667 143.524,69.552 C142.746667,70.4706667 141.969333,71.46 141.192,72.52 C139.566667,74.7106667 138.224,76.9013333 137.164,79.092 C135.750667,81.9186667 134.902667,84.4273333 134.62,86.618 C134.549333,87.254 134.514,87.9606667 134.514,88.738 L134.514,88.738 L134.62,89.374 C134.62,89.586 134.655333,89.7626667 134.726,89.904 L134.726,89.904 L134.938,90.54 C134.938,90.6106667 135.008667,90.7873333 135.15,91.07 L135.15,91.07 L135.256,91.388 L135.468,91.6 C135.609333,91.8826667 135.715333,92.0593333 135.786,92.13 C136.280667,92.6953333 136.563333,93.0133333 136.634,93.084 C136.916667,93.296 137.093333,93.4373333 137.164,93.508 L137.164,93.508 L137.694,93.72 L137.906,93.932 C137.976667,93.932 138.082667,93.9673333 138.224,94.038 C138.365333,94.1086667 138.612667,94.1793333 138.966,94.25 Z M140.32,81.052 L140.45,80.788 C141.580667,78.8093333 142.888,76.866 144.372,74.958 C145.149333,73.9686667 145.891333,73.05 146.598,72.202 C147.304667,71.4246667 147.693333,71.0006667 147.764,70.93 L148.506,70.188 C148.647333,70.0466667 148.753333,69.976 148.824,69.976 C149.106667,69.6933333 149.424667,69.5166667 149.778,69.446 C149.919333,69.3753333 150.060667,69.34 150.202,69.34 C150.343333,69.34 150.484667,69.446 150.626,69.658 C150.696667,69.9406667 150.696667,70.2586667 150.626,70.612 L150.626,70.612 L150.52,70.718 L150.414,71.142 L150.308,71.46 C150.096,71.884 149.954667,72.202 149.884,72.414 L149.884,72.414 L148.824,74.11 C148.046667,75.2406667 147.198667,76.2653333 146.28,77.184 C145.361333,78.1733333 144.336667,79.0213333 143.206,79.728 C142.244933,80.3498667 141.283867,80.7908267 140.3228,81.05088 L140.32,81.052 Z M155.714,99.55 C156.208667,99.6913333 156.774,99.7266667 157.41,99.656 C157.904667,99.656 158.399333,99.5853333 158.894,99.444 C159.600667,99.232 160.378,98.9493333 161.226,98.596 C161.862,98.2426667 162.568667,97.854 163.346,97.43 C164.547333,96.7233333 165.819333,95.8753333 167.162,94.886 C169.564667,93.1193333 171.861333,91.1053333 174.052,88.844 C175.253333,87.572 176.242667,86.4413333 177.02,85.452 C178.150667,83.8973333 178.928,82.5193333 179.352,81.318 C179.564,80.8233333 179.422667,80.47 178.928,80.258 C178.433333,79.9753333 178.044667,80.0813333 177.762,80.576 L177.762,80.576 L177.762,80.682 C177.479333,81.1766667 177.090667,81.742 176.596,82.378 C176.172,82.8726667 175.712667,83.4026667 175.218,83.968 C174.228667,85.028 173.204,86.0173333 172.144,86.936 C170.024,88.7733333 167.727333,90.54 165.254,92.236 C164.052667,93.0133333 162.851333,93.72 161.65,94.356 C160.166,95.1333333 158.964667,95.628 158.046,95.84 C157.763333,95.9106667 157.480667,95.946 157.198,95.946 L157.198,95.946 L156.88,95.946 C156.809333,95.8046667 156.774,95.6633333 156.774,95.522 C156.632667,95.098 156.562,94.5326667 156.562,93.826 C156.562,93.2606667 156.597333,92.6246667 156.668,91.918 C157.021333,89.5153333 157.657333,86.7593333 158.576,83.65 C158.788,82.8726667 159.035333,82.0246667 159.318,81.106 C159.53,80.9646667 159.812667,80.788 160.166,80.576 C160.59,80.2226667 161.190667,79.728 161.968,79.092 C162.957333,78.244 164.052667,77.2193333 165.254,76.018 C167.020667,74.2513333 168.999333,72.0253333 171.19,69.34 C175.359333,64.252 178.786667,59.3053333 181.472,54.5 C182.32,52.9453333 182.991333,51.5673333 183.486,50.366 C183.556667,50.154 183.698,49.8006667 183.91,49.306 C184.192667,48.7406667 184.334,48.3873333 184.334,48.246 L184.334,48.246 L184.758,47.186 C184.899333,46.762 185.005333,46.338 185.076,45.914 C185.217333,45.4193333 185.323333,44.96 185.394,44.536 C185.394,43.7586667 185.288,43.1226667 185.076,42.628 C184.864,42.204 184.581333,41.8506667 184.228,41.568 C183.874667,41.2146667 183.486,41.0026667 183.062,40.932 C182.779333,40.7906667 182.426,40.72 182.002,40.72 L182.002,40.72 L181.26,40.72 C180.341333,40.8613333 179.422667,41.144 178.504,41.568 C177.797333,41.9213333 177.055333,42.3806667 176.278,42.946 C175.147333,43.794 173.981333,44.8893333 172.78,46.232 C171.861333,47.292 170.907333,48.4933333 169.918,49.836 C168.292667,52.0973333 166.667333,54.6766667 165.042,57.574 C163.77,59.8353333 162.392,62.4853333 160.908,65.524 C159.565333,68.5626667 158.399333,71.354 157.41,73.898 C156.279333,76.866 155.325333,79.728 154.548,82.484 C153.558667,86.088 152.958,89.0913333 152.746,91.494 C152.675333,92.342 152.64,93.1546667 152.64,93.932 C152.64,94.992 152.781333,95.9106667 153.064,96.688 C153.205333,97.2533333 153.452667,97.7833333 153.806,98.278 C154.088667,98.5606667 154.371333,98.808 154.654,99.02 C154.936667,99.232 155.29,99.4086667 155.714,99.55 Z M160.59,77.396 C160.872667,76.76 161.155333,76.0886667 161.438,75.382 C163.558,69.7993333 165.960667,64.5346667 168.646,59.588 C170.200667,56.7613333 171.72,54.288 173.204,52.168 C174.052,50.9666667 174.9,49.8713333 175.748,48.882 C176.737333,47.6806667 177.691333,46.7266667 178.61,46.02 C179.740667,45.1013333 180.765333,44.5713333 181.684,44.43 C181.684,44.642 181.648667,44.8893333 181.578,45.172 C181.507333,45.4546667 181.436667,45.7373333 181.366,46.02 L181.366,46.02 L181.048,46.974 C180.977333,47.1153333 180.836,47.4686667 180.624,48.034 C180.412,48.458 180.270667,48.776 180.2,48.988 C179.776,50.048 179.175333,51.3553333 178.398,52.91 C177.126,55.3833333 175.677333,57.892 174.052,60.436 C172.285333,63.0506667 170.624667,65.418 169.07,67.538 C167.374,69.7993333 165.501333,72.096 163.452,74.428 C162.462667,75.5586667 161.508667,76.548 160.59,77.396 Z M177.762,101.14 C178.751333,101.281333 179.776,101.175333 180.836,100.822 C181.613333,100.61 182.496667,100.256667 183.486,99.762 C184.899333,98.9846667 186.348,98.0306667 187.832,96.9 C190.022667,95.1333333 192.425333,92.766 195.04,89.798 C196.170667,88.526 197.230667,87.2186667 198.22,85.876 C198.785333,85.1693333 199.28,84.4626667 199.704,83.756 C199.986667,83.4026667 200.198667,83.0493333 200.34,82.696 C200.481333,82.484 200.587333,82.272 200.658,82.06 C200.799333,81.7066667 200.905333,81.424 200.976,81.212 C201.046667,80.576 200.781667,80.2226667 200.181,80.152 C199.580333,80.0813333 199.244667,80.3286667 199.174,80.894 C199.174,80.9646667 199.138667,81.0883333 199.068,81.265 C198.997333,81.4416667 198.891333,81.636 198.75,81.848 C198.608667,82.06 198.432,82.378 198.22,82.802 C197.796,83.438 197.301333,84.074 196.736,84.71 C195.888,85.8406667 194.828,87.0773333 193.556,88.42 C191.224,90.8933333 188.786,93.0133333 186.242,94.78 C184.758,95.84 183.415333,96.6173333 182.214,97.112 C180.588667,97.748 179.316667,97.9246667 178.398,97.642 C178.186,97.5713333 177.974,97.4653333 177.762,97.324 C177.691333,97.2533333 177.585333,97.1826667 177.444,97.112 L177.444,97.112 L177.444,97.059 C177.444,97.0236667 177.408667,97.006 177.338,97.006 L177.338,97.006 L177.338,96.9 L177.338,96.9 L177.126,96.476 C177.055333,96.264 177.02,96.0166667 177.02,95.734 C176.949333,95.1686667 176.984667,94.4973333 177.126,93.72 C177.196667,93.1546667 177.338,92.4126667 177.55,91.494 C178.186,88.8086667 179.246,85.876 180.73,82.696 C181.436667,81.212 182.178667,79.8693333 182.956,78.668 C183.945333,77.2546667 184.899333,76.0886667 185.818,75.17 C186.383333,74.6753333 186.913333,74.322 187.408,74.11 C187.832,73.898 188.220667,73.8273333 188.574,73.898 L188.574,73.898 L188.68,73.792 C188.750667,73.9333333 188.786,74.1453333 188.786,74.428 C188.786,74.9226667 188.68,75.5586667 188.468,76.336 C188.114667,77.6786667 187.514,79.092 186.666,80.576 C185.747333,82.1306667 184.793333,83.226 183.804,83.862 L183.804,83.862 L183.698,83.968 C183.274,84.2506667 183.168,84.604 183.38,85.028 C183.662667,85.5933333 184.086667,85.7346667 184.652,85.452 C185.429333,85.0986667 186.171333,84.5686667 186.878,83.862 C187.514,83.2966667 188.114667,82.6253333 188.68,81.848 C189.74,80.364 190.588,78.8093333 191.224,77.184 C191.577333,76.1946667 191.789333,75.2406667 191.86,74.322 C191.86,73.6153333 191.718667,73.0146667 191.436,72.52 C191.294667,72.096 191.065,71.7426667 190.747,71.46 C190.429,71.1773333 190.093333,70.9653333 189.74,70.824 C188.609333,70.4 187.408,70.4353333 186.136,70.93 C185.217333,71.2126667 184.334,71.7073333 183.486,72.414 C182.284667,73.4033333 181.048,74.746 179.776,76.442 C178.786667,77.7846667 177.868,79.2686667 177.02,80.894 C176.596,81.6006667 176.207333,82.3426667 175.854,83.12 C175.500667,83.8973333 175.182667,84.71 174.9,85.558 C174.264,87.1126667 173.734,88.8086667 173.31,90.646 C173.168667,91.494 173.062667,92.3773333 172.992,93.296 C172.850667,94.356 172.850667,95.3453333 172.992,96.264 C173.062667,96.8293333 173.204,97.3593333 173.416,97.854 C173.628,98.5606667 173.981333,99.126 174.476,99.55 L174.476,99.55 L174.9,99.974 C175.112,100.115333 175.218,100.186 175.218,100.186 C175.500667,100.398 175.783333,100.539333 176.066,100.61 C176.631333,100.892667 177.196667,101.069333 177.762,101.14 Z M199.174,95.946 C199.81,96.0166667 200.375333,96.0166667 200.87,95.946 C201.788667,95.8046667 202.707333,95.416 203.626,94.78 C204.262,94.356 204.862667,93.7553333 205.428,92.978 C206.417333,91.8473333 207.265333,90.4693333 207.972,88.844 C208.396,88.0666667 208.714,87.3246667 208.926,86.618 C209.067333,85.982 209.208667,85.1693333 209.35,84.18 C209.420667,84.1093333 209.456,83.968 209.456,83.756 C209.456,83.756 209.473667,83.7736667 209.509,83.809 C209.544333,83.8443333 209.562,83.862 209.562,83.862 C210.41,84.074 211.187333,84.2153333 211.894,84.286 C213.59,84.498 215.18,84.4273333 216.664,84.074 C218.430667,83.65 219.914667,82.9433333 221.116,81.954 C221.610667,81.53 221.646,81.0883333 221.222,80.629 C220.798,80.1696667 220.374,80.152 219.95,80.576 C218.960667,81.424 217.759333,81.9893333 216.346,82.272 C215.003333,82.5546667 213.59,82.6253333 212.106,82.484 C211.47,82.3426667 210.798667,82.166 210.092,81.954 L210.092,81.954 L209.668,81.848 C209.668,81.848 209.650333,81.8303333 209.615,81.795 C209.579667,81.7596667 209.562,81.742 209.562,81.742 C209.562,80.9646667 209.526667,80.1873333 209.456,79.41 C209.385333,78.9153333 209.279333,78.4913333 209.138,78.138 C208.996667,77.5726667 208.784667,77.1133333 208.502,76.76 C208.29,76.4773333 208.042667,76.2653333 207.76,76.124 C207.548,76.0533333 207.371333,75.9826667 207.23,75.912 C206.947333,75.8413333 206.664667,75.8766667 206.382,76.018 C206.099333,76.0886667 205.852,76.23 205.64,76.442 C205.569333,76.5126667 205.516333,76.601 205.481,76.707 C205.445667,76.813 205.392667,76.9013333 205.322,76.972 C205.251333,77.184 205.180667,77.4666667 205.11,77.82 C205.039333,78.668 205.216,79.5513333 205.64,80.47 C205.993333,81.318 206.488,82.0246667 207.124,82.59 C207.124,83.0846667 207.088667,83.5086667 207.018,83.862 C206.876667,84.71 206.7,85.3813333 206.488,85.876 C206.276,86.4413333 205.993333,87.0773333 205.64,87.784 C204.933333,89.1266667 204.191333,90.2573333 203.414,91.176 C202.919333,91.6 202.424667,91.9886667 201.93,92.342 C201.435333,92.6246667 200.976,92.766 200.552,92.766 C199.986667,92.766 199.633333,92.66 199.492,92.448 C199.28,92.236 199.103333,91.8826667 198.962,91.388 C198.820667,90.8933333 198.75,90.3633333 198.75,89.798 C198.75,89.0913333 198.820667,88.4553333 198.962,87.89 C199.032667,87.3953333 199.174,86.724 199.386,85.876 C199.527333,85.3106667 199.704,84.6746667 199.916,83.968 C200.905333,81.2826667 202.283333,78.9506667 204.05,76.972 C204.474,76.4773333 204.933333,76.018 205.428,75.594 C205.922667,75.17 206.382,74.852 206.806,74.64 L206.806,74.64 L206.912,74.64 L206.912,74.534 C207.124,75.6646667 207.795333,76.23 208.926,76.23 C209.491333,76.3006667 209.968333,76.124 210.357,75.7 C210.745667,75.276 210.94,74.8166667 210.94,74.322 L210.94,74.322 L210.94,73.368 L210.94,73.368 L210.728,72.52 C210.586667,72.096 210.374667,71.7073333 210.092,71.354 C209.738667,70.8593333 209.279333,70.506 208.714,70.294 C208.572667,70.294 208.396,70.2586667 208.184,70.188 L208.184,70.188 L207.442,70.188 C207.159333,70.188 206.841333,70.2233333 206.488,70.294 C205.993333,70.4353333 205.498667,70.612 205.004,70.824 C204.226667,71.1773333 203.449333,71.672 202.672,72.308 C202.036,72.8733333 201.435333,73.474 200.87,74.11 C198.75,76.5126667 197.124667,79.3393333 195.994,82.59 C195.711333,83.438 195.499333,84.2153333 195.358,84.922 C195.216667,85.4166667 195.146,85.8406667 195.146,86.194 C195.004667,86.6886667 194.934,87.0773333 194.934,87.36 C194.792667,88.2786667 194.757333,89.162 194.828,90.01 C194.969333,90.9993333 195.181333,91.918 195.464,92.766 C195.958667,93.8966667 196.665333,94.7446667 197.584,95.31 C197.654667,95.3806667 197.760667,95.4513333 197.902,95.522 C198.114,95.5926667 198.290667,95.6633333 198.432,95.734 C198.573333,95.8046667 198.714667,95.84 198.856,95.84 L198.856,95.84 L199.174,95.946 Z M215.100173,100.943704 L215.286,100.928 C215.851333,100.857333 216.310667,100.61 216.664,100.186 C217.653333,98.278 219.278667,95.9813333 221.54,93.296 C222.882667,91.6 223.766,90.5046667 224.19,90.01 C225.462,88.5966667 226.416,87.5366667 227.052,86.83 C229.172,84.498 231.08,82.484 232.776,80.788 C233.129333,80.364 233.553333,79.94 234.048,79.516 C233.694667,80.152 233.412,80.682 233.2,81.106 C232.352,82.59 231.786667,83.756 231.504,84.604 C231.150667,85.5226667 230.974,86.3 230.974,86.936 C230.974,87.572 231.08,88.1373333 231.292,88.632 C231.433333,88.9853333 231.627667,89.3033333 231.875,89.586 C232.122333,89.8686667 232.387333,90.0806667 232.67,90.222 C233.306,90.5753333 233.906667,90.6106667 234.472,90.328 L234.472,90.328 L234.578,90.328 C234.656519,90.2494815 234.732856,90.173144 234.807012,90.0989877 L236.168,88.738 C236.662667,88.2433333 237.192667,87.784 237.758,87.36 C238.040667,87.0773333 238.517667,86.6356667 239.189,86.035 C239.860333,85.4343333 240.337333,84.9926667 240.62,84.71 C241.609333,83.862 242.598667,83.0846667 243.588,82.378 C244.082667,82.0246667 244.471333,81.7773333 244.754,81.636 C244.612667,82.4133333 244.33,83.65 243.906,85.346 C243.482,87.254 243.199333,88.5613333 243.058,89.268 C242.846,90.116 242.704667,90.8226667 242.634,91.388 C242.634,91.812 242.598667,92.2006667 242.528,92.554 C242.528,92.8366667 242.563333,93.084 242.634,93.296 L242.634,93.296 L242.634,93.826 C242.634,93.826 242.636208,93.8282083 242.640625,93.832625 L242.74,93.932 L242.74,93.932 L242.74,94.25 C242.74,94.6033333 242.810667,94.886 242.952,95.098 C243.164,95.522 243.446667,95.84 243.8,96.052 C244.082667,96.1933333 244.400667,96.264 244.754,96.264 C245.036667,96.3346667 245.354667,96.2993333 245.708,96.158 C245.990667,96.0873333 246.308667,95.946 246.662,95.734 C246.874,95.6633333 247.121333,95.522 247.404,95.31 C247.969333,94.886 248.711333,94.2853333 249.63,93.508 C250.972667,92.3066667 252.28,91.07 253.552,89.798 C254.188,89.162 254.824,88.4906667 255.46,87.784 C256.096,87.148 256.696667,86.512 257.262,85.876 C258.816667,84.0386667 259.947333,82.59 260.654,81.53 C260.936667,80.9646667 260.830667,80.523 260.336,80.205 C259.841333,79.887 259.417333,79.9753333 259.064,80.47 C258.286667,81.6713333 257.191333,83.014 255.778,84.498 L255.778,84.498 L253.976,86.3 C253.34,86.8653333 252.668667,87.4306667 251.962,87.996 C250.407333,89.3386667 249.029333,90.3986667 247.828,91.176 C247.404,91.4586667 247.015333,91.6706667 246.662,91.812 C246.732667,91.3173333 246.838667,90.7343333 246.98,90.063 C247.121333,89.3916667 247.404,88.102 247.828,86.194 C248.252,84.4273333 248.57,83.12 248.782,82.272 C248.923333,81.3533333 248.994,80.6113333 248.994,80.046 C249.064667,79.7633333 249.064667,79.516 248.994,79.304 L248.994,79.304 L248.994,78.774 C248.852667,78.4206667 248.711333,78.1026667 248.57,77.82 C248.358,77.5373333 248.146,77.3253333 247.934,77.184 C247.580667,76.972 247.192,76.8306667 246.768,76.76 C246.414667,76.76 245.990667,76.866 245.496,77.078 C245.213333,77.2193333 244.930667,77.4313333 244.648,77.714 L244.648,77.714 L245.284,77.29 C245.142667,77.4313333 244.542,77.9613333 243.482,78.88 C243.411333,79.0213333 242.916667,79.4806667 241.998,80.258 C240.302,81.8126667 239.312667,82.696 239.03,82.908 C238.182,83.6146667 237.192667,84.392 236.062,85.24 L236.062,85.24 L235.002,85.876 L235.002,85.876 L235.002,85.77 C235.214,84.922 235.638,83.8973333 236.274,82.696 C236.415333,82.3426667 236.945333,81.2826667 237.864,79.516 C238.146667,78.88 238.394,78.3146667 238.606,77.82 C238.959333,77.1133333 239.206667,76.5126667 239.348,76.018 L239.348,76.018 L239.454,75.912 L239.454,75.912 L239.454,75.17 C239.383333,74.746 239.242,74.3573333 239.03,74.004 C238.818,73.792 238.570667,73.6153333 238.288,73.474 L238.288,73.474 L237.864,73.474 C237.864,73.4033333 237.828667,73.368 237.758,73.368 L237.758,73.368 L237.546,73.368 C237.334,73.4386667 237.122,73.5093333 236.91,73.58 C236.698,73.6506667 236.450667,73.7566667 236.168,73.898 C235.956,74.0393333 235.779333,74.1806667 235.638,74.322 C235.143333,74.6753333 234.578,75.17 233.942,75.806 C233.235333,76.442 232.210667,77.4666667 230.868,78.88 C230.02,79.7986667 229.066,80.8586667 228.006,82.06 C227.087333,83.0493333 226.133333,84.1093333 225.144,85.24 L225.144,85.24 L219.632,91.388 C220.126667,90.328 220.621333,89.2326667 221.116,88.102 C221.893333,86.4766667 222.812,84.6393333 223.872,82.59 L223.872,82.59 L225.25,79.728 C226.027333,78.1733333 226.486667,77.2546667 226.628,76.972 L226.628,76.972 L226.734,76.866 C227.087333,76.0886667 226.981333,75.382 226.416,74.746 C226.062667,74.322 225.603333,74.0746667 225.038,74.004 C224.472667,73.9333333 223.978,74.0746667 223.554,74.428 C222.776667,75.2053333 221.999333,76.0533333 221.222,76.972 C220.444667,77.8906667 219.738,78.774 219.102,79.622 C218.678,80.258 218.713333,80.8233333 219.208,81.318 C219.349333,81.4593333 219.526,81.5653333 219.738,81.636 C218.89,83.4733333 218.148,85.0633333 217.512,86.406 C216.452,88.5966667 215.568667,90.5046667 214.862,92.13 C214.367333,93.3313333 213.978667,94.356 213.696,95.204 C213.484,95.84 213.307333,96.37 213.166,96.794 C213.095333,97.218 213.024667,97.5713333 212.954,97.854 L212.954,97.854 L212.954,99.02 C213.024667,99.1613333 213.06,99.2673333 213.06,99.338 L213.06,99.338 L213.272,99.762 C213.413333,100.044667 213.59,100.292 213.802,100.504 C214.226,100.857333 214.720667,100.998667 215.286,100.928 L215.100173,100.943704 Z M259.17,94.25 C259.876667,94.3913333 260.689333,94.356 261.608,94.144 C262.173333,94.0733333 262.844667,93.8613333 263.622,93.508 C264.611333,93.084 265.742,92.4833333 267.014,91.706 C268.851333,90.5046667 270.83,88.95 272.95,87.042 C274.646,85.558 276.448,83.8266667 278.356,81.848 C278.709333,81.4946667 278.709333,81.106 278.356,80.682 C277.932,80.1873333 277.508,80.152 277.084,80.576 C275.176,82.3426667 273.338667,83.9326667 271.572,85.346 C269.381333,87.042 267.402667,88.42 265.636,89.48 C264.505333,90.116 263.480667,90.6106667 262.562,90.964 C261.996667,91.176 261.502,91.3173333 261.078,91.388 C260.512667,91.4586667 260.088667,91.4233333 259.806,91.282 L259.806,91.282 L259.594,91.282 C259.594,91.2113333 259.558667,91.176 259.488,91.176 L259.488,91.176 L259.382,91.07 L259.17,90.964 L258.852,90.752 C258.852,90.6813333 258.799,90.593 258.693,90.487 C258.6718,90.4658 258.65272,90.44672 258.63576,90.42976 L258.534,90.328 L258.428,90.116 L258.322,89.904 L258.322,89.798 L258.216,89.48 L258.11,89.162 L258.11,89.162 L258.11,88.844 L258.004,88.526 C258.004,88.526 258.021667,88.4376667 258.057,88.261 C258.092333,88.0843333 258.11,87.9253333 258.11,87.784 L258.11,87.784 L258.11,87.519 C258.11,87.3423333 258.145333,87.1833333 258.216,87.042 C258.357333,86.1233333 258.675333,85.0986667 259.17,83.968 C259.240667,83.8031111 259.313296,83.6362593 259.387889,83.4674444 L259.61,82.971 L259.662367,82.9889112 C259.762722,83.0177633 259.874367,83.0296805 259.997302,83.0246627 L260.124,83.014 C261.537333,82.802 262.986,82.272 264.47,81.424 C265.742,80.7173333 266.943333,79.834 268.074,78.774 C269.134,77.7846667 270.158667,76.7246667 271.148,75.594 C271.572,75.0286667 271.996,74.428 272.42,73.792 C272.632,73.4386667 272.844,73.0853333 273.056,72.732 L273.056,72.732 L273.268,72.202 L273.586,71.566 L273.48,71.672 C273.904,70.824 274.045333,69.9406667 273.904,69.022 C273.762667,67.8913333 273.232667,67.008 272.314,66.372 C271.395333,65.736 270.370667,65.524 269.24,65.736 C268.674667,65.8773333 268.250667,66.0186667 267.968,66.16 C267.614667,66.2306667 267.226,66.4073333 266.802,66.69 C266.802,66.69 266.484,66.9373333 265.848,67.432 C265.636,67.644 265.388667,67.856 265.106,68.068 C264.682,68.492 264.222667,68.9866667 263.728,69.552 C262.950667,70.4706667 262.173333,71.46 261.396,72.52 C259.770667,74.7106667 258.428,76.9013333 257.368,79.092 C255.954667,81.9186667 255.106667,84.4273333 254.824,86.618 C254.753333,87.254 254.718,87.9606667 254.718,88.738 L254.718,88.738 L254.824,89.374 C254.824,89.586 254.859333,89.7626667 254.93,89.904 L254.93,89.904 L255.142,90.54 C255.142,90.6106667 255.212667,90.7873333 255.354,91.07 L255.354,91.07 L255.46,91.388 L255.672,91.6 C255.813333,91.8826667 255.919333,92.0593333 255.99,92.13 C256.484667,92.6953333 256.767333,93.0133333 256.838,93.084 C257.120667,93.296 257.297333,93.4373333 257.368,93.508 L257.368,93.508 L257.898,93.72 L258.11,93.932 C258.180667,93.932 258.286667,93.9673333 258.428,94.038 C258.569333,94.1086667 258.816667,94.1793333 259.17,94.25 Z M260.524,81.052 L260.654,80.788 C261.784667,78.8093333 263.092,76.866 264.576,74.958 C265.353333,73.9686667 266.095333,73.05 266.802,72.202 C267.508667,71.4246667 267.897333,71.0006667 267.968,70.93 C267.985667,70.9123333 268.005542,70.8924583 268.027625,70.870375 L268.71,70.188 C268.851333,70.0466667 268.957333,69.976 269.028,69.976 C269.310667,69.6933333 269.628667,69.5166667 269.982,69.446 C270.123333,69.3753333 270.264667,69.34 270.406,69.34 C270.547333,69.34 270.688667,69.446 270.83,69.658 C270.900667,69.9406667 270.900667,70.2586667 270.83,70.612 L270.83,70.612 L270.724,70.718 L270.618,71.142 L270.512,71.46 C270.3,71.884 270.158667,72.202 270.088,72.414 C269.734667,72.9793333 269.381333,73.5446667 269.028,74.11 C268.250667,75.2406667 267.402667,76.2653333 266.484,77.184 C265.565333,78.1733333 264.540667,79.0213333 263.41,79.728 C262.448933,80.3498667 261.487867,80.7908267 260.5268,81.05088 L260.524,81.052 Z" id="Welcome" fill="#0D0D0F" fill-rule="nonzero"></path>
    </g>
</svg>